<?xml version="1.0" standalone="no"?>
<!DOCTYPE svg PUBLIC "-//W3C//DTD SVG 20010904//EN"
 "http://www.w3.org/TR/2001/REC-SVG-20010904/DTD/svg10.dtd">
<svg version="1.0" xmlns="http://www.w3.org/2000/svg"
 width="4500.000000pt" height="4500.000000pt" viewBox="0 0 4500.000000 4500.000000"
 preserveAspectRatio="xMidYMid meet">

<g transform="translate(0.000000,4500.000000) scale(0.100000,-0.100000)"
fill="#000000" stroke="none">
<path d="M14170 18085 l0 -705 1160 0 1160 0 0 705 0 705 -1160 0 -1160 0 0
-705z"/>
<path d="M20422 18781 c2 -4 260 -321 573 -704 l570 -696 968 0 967 -1 0 705
0 705 -1541 0 c-849 0 -1539 -4 -1537 -9z"/>
<path d="M28180 18085 l0 -705 1175 0 1175 0 0 705 0 705 -1175 0 -1175 0 0
-705z"/>
<path d="M38857 14419 c-476 -55 -904 -297 -1160 -656 -341 -479 -389 -1151
-121 -1686 100 -199 307 -431 499 -559 233 -156 519 -257 840 -299 136 -17
448 -15 588 5 386 55 700 200 921 424 l59 60 -239 260 -239 259 -40 -33 c-79
-68 -220 -154 -297 -184 -164 -63 -233 -75 -453 -74 -184 0 -208 3 -299 27
-301 81 -511 274 -590 545 l-15 52 1189 0 1188 0 8 88 c18 192 0 441 -47 624
-65 259 -205 510 -384 692 -249 252 -590 411 -980 456 -103 11 -327 11 -428
-1z m433 -695 c92 -23 235 -94 300 -150 79 -68 148 -157 191 -249 35 -75 69
-183 69 -219 0 -15 -70 -16 -775 -16 l-775 0 6 28 c18 83 51 176 87 247 49 94
168 220 259 274 72 41 202 87 288 100 86 13 269 5 350 -15z"/>
<path d="M36380 14005 l0 -363 27 -7 c16 -4 79 -31 142 -61 63 -30 115 -53
117 -52 1 2 68 144 149 317 l147 314 -24 19 c-56 43 -315 139 -480 177 l-78
18 0 -362z"/>
<path d="M36380 12175 c0 -465 3 -845 8 -845 16 0 214 100 259 131 208 141
335 307 395 516 30 105 32 328 5 446 -63 268 -261 463 -581 573 -38 13 -73 24
-78 24 -4 0 -8 -380 -8 -845z"/>
</g>
</svg>
